<svg xmlns="http://www.w3.org/2000/svg" xmlns:xlink="http://www.w3.org/1999/xlink" viewBox="0 0 1105.5 949.96"><defs><style>.cls-1,.cls-20,.cls-21{fill:#261816;}.cls-1{stroke:#000;}.cls-1,.cls-2{stroke-linecap:round;stroke-width:7px;}.cls-1,.cls-2,.cls-6{stroke-miterlimit:10;}.cls-2{fill:#fff;}.cls-2,.cls-6{stroke:#261816;}.cls-3{fill:#4c5459;}.cls-4{fill:#593825;}.cls-5{fill:#d9c2a7;}.cls-6,.cls-8{fill:none;}.cls-7{fill:url(#linear-gradient);}.cls-10,.cls-9{fill:#bd202e;}.cls-10{opacity:0.35;isolation:isolate;}.cls-11{fill:url(#linear-gradient-2);}.cls-12{fill:url(#linear-gradient-3);}.cls-13{fill:url(#linear-gradient-4);}.cls-14{fill:url(#linear-gradient-5);}.cls-15{fill:url(#linear-gradient-6);}.cls-16{fill:url(#linear-gradient-7);}.cls-17{fill:url(#linear-gradient-8);}.cls-18{fill:url(#linear-gradient-9);}.cls-19{fill:url(#linear-gradient-10);}.cls-20{font-size:368.12px;font-family:EastSeaDokdo-Regular, East Sea Dokdo;}.cls-21{font-size:94.44px;font-family:Arial-Black, Arial Black;font-weight:800;}.cls-22{letter-spacing:0.02em;}.cls-23{letter-spacing:-0.02em;}</style><linearGradient id="linear-gradient" x1="-4064.26" y1="5490.27" x2="-3604.7" y2="6027.65" gradientTransform="matrix(0.07, -0.04, 0.08, 0.07, 745.19, -152.52)" gradientUnits="userSpaceOnUse"><stop offset="0" stop-color="#f59723"/><stop offset="0.31" stop-color="#f69822"/><stop offset="0.84" stop-color="#e87726"/></linearGradient><linearGradient id="linear-gradient-2" x1="-7452.57" y1="5431.11" x2="-4187.47" y2="5431.11" gradientTransform="matrix(0.07, -0.04, 0.08, 0.07, 745.19, -152.52)" gradientUnits="userSpaceOnUse"><stop offset="0.32" stop-color="#9c2063"/><stop offset="0.63" stop-color="#c82037"/><stop offset="0.75" stop-color="#cc2135"/><stop offset="1" stop-color="#e87726"/></linearGradient><linearGradient id="linear-gradient-3" x1="-7059.44" y1="5753.99" x2="-5109.2" y2="5753.99" gradientTransform="matrix(0.07, -0.04, 0.08, 0.07, 745.19, -152.52)" gradientUnits="userSpaceOnUse"><stop offset="0" stop-color="#282661"/><stop offset="0.1" stop-color="#662e8c"/><stop offset="0.79" stop-color="#9e2064"/><stop offset="0.95" stop-color="#cc2032"/></linearGradient><linearGradient id="linear-gradient-4" x1="-7269.4" y1="5396.85" x2="-4005.43" y2="5396.85" xlink:href="#linear-gradient-2"/><linearGradient id="linear-gradient-5" x1="-7032.04" y1="5438.46" x2="-5317.28" y2="5438.46" xlink:href="#linear-gradient-3"/><linearGradient id="linear-gradient-6" x1="-7271.76" y1="5735.95" x2="-4000.38" y2="5735.95" xlink:href="#linear-gradient-2"/><linearGradient id="linear-gradient-7" x1="-7479.17" y1="5721.13" x2="-4204.45" y2="5721.13" xlink:href="#linear-gradient-2"/><linearGradient id="linear-gradient-8" x1="-7286.32" y1="5836.3" x2="-3990.94" y2="5836.3" xlink:href="#linear-gradient-2"/><linearGradient id="linear-gradient-9" x1="-7287.4" y1="5825.56" x2="-3992.67" y2="5825.56" xlink:href="#linear-gradient-2"/><linearGradient id="linear-gradient-10" x1="-5434.8" y1="5823.17" x2="-4709.89" y2="5823.17" xlink:href="#linear-gradient-2"/></defs><g id="Layer_15" data-name="Layer 15"><line class="cls-1" x1="3.5" y1="207.01" x2="779.69" y2="3.5"/><line class="cls-2" x1="54.79" y1="23.66" x2="825.18" y2="144.61"/><polygon class="cls-3" points="619.21 507.06 543.85 659.75 542.77 661.95 495.85 682.05 473.61 691.58 462.38 665.81 458.88 657.75 435.24 603.53 411.38 651.89 403.87 667.12 363.99 684.23 344.91 692.4 335.27 670.29 326.38 649.92 258.04 493.03 265.66 489.76 295.63 500.88 289.12 479.7 303.7 473.44 323.94 500.94 309.21 471.08 328.92 462.63 371.08 559.38 404.06 492.51 427.62 503.95 468.36 486.48 503.55 567.23 552.62 467.78 566.61 474.58 557.44 493.95 570.95 478.38 568.67 498.81 576.54 479.39 581.62 481.85 592.38 494.98 601.49 493.91 619.21 507.06"/><path class="cls-4" d="M928,767c-2.7-2.15-5.45-3.46-7.54-.77-2.68,3.45-3.11,9.32-8.28,10a11.85,11.85,0,0,1-9.67-3.63,11.71,11.71,0,0,1-3.47-9.67c.84-5.12,6.77-5.42,10.3-8,2.76-2,1.5-4.78-.61-7.49-4.53-5.84-11.54-12.22-14.51-14.85-2.21,2.57-7.59,8.64-12.82,12.29-2.44,1.7-5,2.53-7.53-.56-3.18-4-4.41-10-9.75-11.63a9.42,9.42,0,0,0-9.29,2,9.23,9.23,0,0,0-2.19,9.18c1.55,5.32,7.59,6.68,11.52,9.91,3.06,2.52,2.16,5.1.4,7.48-3.79,5.1-10,10.32-12.66,12.46,2.59,3,8.87,10.08,14.66,14.7,2.69,2.15,5.45,3.45,7.54.76,2.67-3.44,3.1-9.32,8.28-10a11.87,11.87,0,0,1,9.67,3.64,11.66,11.66,0,0,1,3.46,9.67c-.84,5.12-6.77,5.41-10.3,8-2.75,2-1.5,4.77.61,7.49,4.53,5.84,11.55,12.22,14.51,14.85,2.21-2.58,7.6-8.65,12.83-12.29,2.43-1.7,5.05-2.53,7.53.56,3.17,4,4.41,10,9.75,11.62a9.38,9.38,0,0,0,9.29-2,9.21,9.21,0,0,0,2.18-9.17c-1.54-5.33-7.58-6.68-11.51-9.92-3.06-2.52-2.17-5.09-.4-7.47,3.78-5.11,10-10.32,12.66-12.46C940.09,778.7,933.81,771.61,928,767Z" transform="translate(-370.5 -23.5)"/><path class="cls-5" d="M939.74,874.42c-1.94-2.63-3-5.43.27-8,4.13-3.26,10.56-4.4,12.1-10a10.29,10.29,0,0,0-2.55-9.92,10.48,10.48,0,0,0-10-2.58c-5.68,1.49-6.86,7.86-10.18,11.94-2.58,3.17-5.39,2.15-8,.21-5.67-4.16-11.57-10.93-14-13.79-3.12,2.66-10.48,9.13-15.2,15.14-2.2,2.8-3.48,5.69-.49,8,3.84,2.94,10.19,3.56,11.2,9.08a11.75,11.75,0,0,1-3.49,10.16,11.94,11.94,0,0,1-10.27,3.4c-5.56-1-6.14-7.33-9.08-11.16-2.29-3-5.22-1.72-8,.44-6.1,4.64-12.66,11.91-15.36,15,2.87,2.42,9.65,8.31,13.82,14,1.94,2.64,2.95,5.44-.27,8-4.13,3.26-10.56,4.4-12.1,10a10.29,10.29,0,0,0,2.54,9.92,10.51,10.51,0,0,0,10,2.58c5.67-1.49,6.86-7.86,10.17-11.94,2.58-3.18,5.4-2.16,8-.22,5.68,4.17,11.58,10.93,14,13.8l50.74-50C950.69,886,943.9,880.08,939.74,874.42Z" transform="translate(-370.5 -23.5)"/><path class="cls-5" d="M751,932.67c-1.6-3.77-3.61-6.71-6.68-5.18-3.94,2-6.81,7.7-11.93,5.41-3.33-1.49-6.12-5.18-7.43-9.36s-1.06-8.8.86-11.89c2.94-4.74,8.57-1.58,12.94-2.15,3.4-.45,3.41-4,2.6-8-1.74-8.6-5.56-19.21-7.2-23.62-3.14,1.33-10.7,4.38-17.09,5-3,.32-5.76-.36-6.75-5-1.28-5.9.12-12.76-4.14-17.57-2.78-3.13-6.42-4.3-9.46-3.41s-5.36,3.94-5.9,8.08c-.81,6.35,4.22,11.25,6.5,16.85,1.78,4.36-.14,6.47-2.78,7.87-5.67,3-13.66,4.68-17,5.32,1.14,4.57,4,15.47,7.4,23.57,1.59,3.77,3.6,6.71,6.67,5.18,3.94-2,6.82-7.7,11.93-5.41,3.33,1.49,6.12,5.18,7.44,9.36s1,8.8-.87,11.89c-2.94,4.74-8.57,1.58-12.94,2.15-3.4.44-3.4,4-2.59,8,1.73,8.61,5.55,19.22,7.19,23.63l56.63-17.22C757.23,951.67,754.4,940.76,751,932.67Z" transform="translate(-370.5 -23.5)"/><path class="cls-4" d="M713.37,763.22c-1.87,3.06-2.88,6,0,7.61,3.73,2,9.64,1.42,10.91,6.43.83,3.26-.28,7.18-2.61,10.23s-5.9,5.1-9.29,5.15c-5.2.08-6.13-5.74-9.08-8.78-2.3-2.37-4.93-.64-7.42,1.94-5.36,5.53-11,13.62-13.3,17,2.81,1.73,9.44,6,13.64,10.52,2,2.12,3.06,4.56.23,7.57-3.62,3.85-9.5,6.15-10.58,11.73a8.91,8.91,0,0,0,3,8.86,9.08,9.08,0,0,0,9.4.54c5.16-2.49,5.87-8.71,8.68-13.18,2.2-3.49,4.87-3.06,7.43-1.74,5.5,2.85,11.37,8.1,13.78,10.34,2.72-3.1,9.14-10.59,13.14-17.15,1.86-3.06,2.87-6,0-7.61-3.72-2-9.63-1.42-10.9-6.43-.83-3.26.28-7.18,2.61-10.23s5.89-5.1,9.29-5.15c5.2-.08,6.13,5.74,9.08,8.78,2.3,2.37,4.93.64,7.42-1.94,5.35-5.53,11-13.62,13.29-17-2.8-1.73-9.43-6-13.63-10.53-1.95-2.11-3.06-4.55-.24-7.56,3.62-3.85,9.5-6.15,10.58-11.73a8.87,8.87,0,0,0-3-8.86,9.06,9.06,0,0,0-9.39-.54c-5.16,2.49-5.87,8.71-8.69,13.18-2.19,3.49-4.86,3.06-7.42,1.73-5.51-2.84-11.38-8.09-13.79-10.33C723.78,749.17,717.36,756.66,713.37,763.22Z" transform="translate(-370.5 -23.5)"/><path class="cls-4" d="M560.61,406.25c-2.86,4.25-6.22,7.3-10.56,4.35-5.56-3.78-9-12-16.89-10.81-5.13.78-9.74,4.53-12.25,9.39s-2.73,10.79-.3,15.35c3.71,7,12.44,4.84,18.82,7,5,1.69,4.5,6.19,2.77,11-3.72,10.32-10.78,22.49-13.79,27.54,4.45,2.73,15.22,9.1,24.58,12.07,4.35,1.38,8.55,1.44,10.63-4.06,2.68-7,1.53-16.2,8.47-20.86A14.51,14.51,0,0,1,586.51,456a14.3,14.3,0,0,1,7.64,12.2c.35,8.3-7.74,12.84-11.85,19.17-3.21,4.94-.66,8.24,3.05,10.89,8,5.68,19.55,10.47,24.42,12.39,2.29-5.41,7.94-18.29,14.08-27.4,2.86-4.24,6.22-7.3,10.55-4.35,5.56,3.79,9,12,16.9,10.81,5.13-.78,9.74-4.53,12.24-9.39s2.73-10.79.31-15.34c-3.71-7-12.45-4.84-18.83-7-5-1.69-4.5-6.19-2.76-11,3.72-10.32,10.78-22.49,13.79-27.53-4.46-2.74-15.22-9.1-24.58-12.07-4.36-1.38-8.55-1.45-10.64,4.05-2.67,7.05-1.53,16.2-8.46,20.87a14.52,14.52,0,0,1-14.43,1.18,14.26,14.26,0,0,1-7.63-12.19c-.36-8.31,7.74-12.85,11.85-19.18,3.21-4.94.66-8.24-3.06-10.89-8-5.68-19.55-10.46-24.42-12.38C572.39,384.27,566.75,397.14,560.61,406.25Z" transform="translate(-370.5 -23.5)"/><path class="cls-5" d="M555.43,619.71c1.21-4.26,1.41-8.15-2.7-9.15-5.27-1.29-12.27,1.31-15.57-4.32-2.15-3.67-2.16-8.74-.38-13.14s5.42-8,9.55-9.13c6.33-1.72,9.49,5,14.16,7.74,3.64,2.13,6.25-.78,8.39-4.67,4.61-8.34,8.67-19.85,10.31-24.68-4-1.21-13.63-4.26-20.34-8.41-3.12-1.93-5.33-4.52-2.93-9,3.08-5.78,9.47-10.39,8.84-17.46a11.41,11.41,0,0,0-6.7-9.74,11.58,11.58,0,0,0-11.67,2.3c-5.44,4.61-4.13,12.34-6,18.6-1.47,4.89-4.88,5.21-8.47,4.42-7.72-1.7-16.72-6.18-20.45-8.12-2.24,4.59-7.47,15.62-10.07,24.78-1.21,4.26-1.4,8.15,2.7,9.16,5.27,1.28,12.27-1.32,15.57,4.31,2.16,3.68,2.16,8.75.39,13.15s-5.43,8-9.56,9.12c-6.33,1.73-9.49-5-14.16-7.73-3.64-2.14-6.24.78-8.39,4.66-4.61,8.35-8.67,19.86-10.3,24.69,4,1.2,13.62,4.26,20.33,8.4,3.12,1.93,5.33,4.53,2.93,9-3.08,5.79-9.46,10.39-8.83,17.46a11.4,11.4,0,0,0,6.7,9.75,11.57,11.57,0,0,0,11.66-2.31c5.44-4.61,4.13-12.33,6-18.6,1.47-4.88,4.88-5.21,8.47-4.41,7.72,1.7,16.72,6.18,20.45,8.11C547.6,639.91,552.83,628.87,555.43,619.71Z" transform="translate(-370.5 -23.5)"/><path class="cls-4" d="M1017.81,415.72c-3.06-1.87-5.27-4.22-3.16-7.77,2.7-4.56,8.6-7.86,7.72-13.8a11.51,11.51,0,0,0-6.78-8.67,11.66,11.66,0,0,0-11,.94c-5,3.39-3.45,9.93-5,15-1.2,3.95-4.43,3.93-7.89,3-7.42-2.06-16.18-6.54-19.82-8.46-2,3.63-6.49,12.38-8.59,19.79-1,3.45-1,6.67,2.94,7.85,5.07,1.51,11.64-.07,15,4.89a11.54,11.54,0,0,1,.89,11,11.71,11.71,0,0,1-8.73,6.8c-6,.91-9.25-5-13.81-7.62-3.56-2.08-5.92.13-7.81,3.18-4.06,6.56-7.46,15.81-8.83,19.7,3.89,1.34,13.16,4.68,19.72,8.69,3.05,1.87,5.26,4.21,3.15,7.77-2.7,4.55-8.6,7.86-7.71,13.8a11.51,11.51,0,0,0,6.78,8.67,11.66,11.66,0,0,0,11-.95c5-3.38,3.44-9.92,5-15,1.2-3.95,4.44-3.93,7.89-3,7.43,2.06,16.19,6.54,19.82,8.46,1.95-3.63,6.49-12.38,8.6-19.79,1-3.45,1-6.67-2.94-7.85-5.07-1.51-11.64.07-15-4.89a11.55,11.55,0,0,1-.89-11,11.7,11.7,0,0,1,8.74-6.8c6-.91,9.25,4.95,13.81,7.62,3.55,2.08,5.92-.13,7.81-3.19,4.06-6.56,7.46-15.81,8.82-19.69C1033.63,423.07,1024.37,419.73,1017.81,415.72Z" transform="translate(-370.5 -23.5)"/><path class="cls-5" d="M1124.52,408.45c-2.33-3.3-4.94-5.7-7.83-3.48-3.72,2.84-5.65,9.12-11.34,8.1-3.72-.67-7.26-3.61-9.38-7.38s-2.68-8.34-1.26-11.81c2.18-5.31,8.56-3.56,13-5.15,3.44-1.24,2.79-4.71,1.23-8.43-3.36-8-9.22-17.44-11.72-21.36-3,2-10.26,6.81-16.74,9-3,1-6,1-7.87-3.25-2.39-5.46-2.19-12.48-7.46-16.16-3.44-2.4-7.41-2.68-10.39-1.1s-4.83,5.12-4.62,9.29c.31,6.38,6.39,10,9.76,14.9,2.63,3.84,1,6.35-1.44,8.34-5.32,4.27-13.26,7.8-16.61,9.22,2,4.19,6.91,14.16,11.92,21.25,2.33,3.3,4.94,5.7,7.83,3.48,3.72-2.84,5.64-9.12,11.34-8.1,3.71.66,7.26,3.61,9.38,7.37s2.68,8.34,1.26,11.81c-2.18,5.32-8.56,3.57-13,5.16-3.44,1.24-2.8,4.71-1.23,8.43,3.35,8,9.22,17.44,11.72,21.36,3-2.05,10.25-6.81,16.74-9,3-1,6-1,7.87,3.25,2.39,5.45,2.19,12.48,7.46,16.16,3.44,2.4,7.41,2.68,10.38,1.09s4.83-5.12,4.63-9.28c-.31-6.39-6.4-10-9.77-14.91-2.62-3.83-1-6.34,1.45-8.33,5.32-4.27,13.26-7.8,16.6-9.22C1134.43,425.51,1129.53,415.53,1124.52,408.45Z" transform="translate(-370.5 -23.5)"/><line class="cls-6" x1="765.17" y1="6.38" x2="579.35" y2="822.32"/><line class="cls-6" x1="809.69" y1="136.93" x2="726.46" y2="334.68"/><g id="g2068"><path id="path1930" class="cls-7" d="M940.29,356.85c-6-.25-16.87,1.54-30.39,5.08l4.78,14.95a203.61,203.61,0,0,1,26.76-7.33l1-.19-1,.19c-2.83.58-11.54,2.65-25.63,8.06,9.82,3.72,25.22,8.65,37.91,12.4,8.91-11,4.15-19.74,4.15-19.74S952.6,357.38,940.29,356.85Z" transform="translate(-370.5 -23.5)"/><path id="path1932" class="cls-8" d="M897.79,413.22l.22.07-1.4-.47-.26,0Z" transform="translate(-370.5 -23.5)"/><path id="path1934" class="cls-8" d="M879.8,429c-.81-.21-1.63-.45-2.47-.7C878.17,428.55,879,428.78,879.8,429Z" transform="translate(-370.5 -23.5)"/><path id="path1936" class="cls-8" d="M795.59,446.23c.16-.12.33-.26.5-.37,3.51-2.54,7-5,10.35-7.37q5.7-4,11.21-7.68c3.85-2.59,7.64-5.08,11.32-7.48q5.81-3.76,11.36-7.18,4.5-2.79,8.82-5.36c1-.58,1.91-1.14,2.86-1.69,1.89-1.11,3.73-2.19,5.57-3.24,1.68-.95,3.33-1.9,5-2.82.56-.3,1.09-.61,1.64-.91l.27-.15-1.2-.41-.44-1.51c-.14.07-.27.16-.41.22-2.51,1.37-5,2.73-7.53,4.13l-4.34,2.45c-4,2.28-7.94,4.64-11.88,7s-7.9,4.83-11.8,7.29-7.6,4.87-11.31,7.32-7.37,4.92-11,7.37q-5.62,3.85-11,7.69c-.82.57-1.61,1.15-2.43,1.71-2.89,2.06-5.73,4.11-8.49,6.14l.71,2.38,1.33.46c.08-.07.16-.12.24-.2l10.62-7.78Z" transform="translate(-370.5 -23.5)"/><path id="path1938" class="cls-8" d="M876.72,428.1" transform="translate(-370.5 -23.5)"/><path id="path1940" class="cls-9" d="M869.52,436.45l-3.88-1.14s0,0,0,0l2,.61Z" transform="translate(-370.5 -23.5)"/><path id="path1942" class="cls-10" d="M869.52,436.45l-3.88-1.14s0,0,0,0l2,.61Z" transform="translate(-370.5 -23.5)"/><path id="path1944" class="cls-9" d="M876.74,428.1h0s0,0,0,0l.62.19c.83.26,1.65.5,2.46.7Z" transform="translate(-370.5 -23.5)"/><path id="path1946" class="cls-10" d="M876.74,428.1h0s0,0,0,0l.62.19c.83.26,1.65.5,2.46.7Z" transform="translate(-370.5 -23.5)"/><path id="path1958" class="cls-11" d="M874.82,393.88q6.4-3.21,12.79-6.12c4.43-2,8.87-3.93,13.28-5.72l.78-.31c4.36-1.75,8.7-3.37,13-4.85l-4.78-14.94-2.83.75c-3.63,1-7.39,2.07-11.31,3.27-4.4,1.34-9,2.85-13.67,4.46-4.31,1.5-8.76,3.09-13.25,4.81q-5.73,2.17-11.52,4.57l-.42.19,6,20.14C866.81,398,870.83,395.87,874.82,393.88Z" transform="translate(-370.5 -23.5)"/><path id="path1970" class="cls-12" d="M783.15,455.4c-2.79,2.09-5.62,4.24-8.46,6.44a.33.33,0,0,1-.13.09c-.4.31-.82.62-1.2.93-1.93,1.49-3.62,2.84-7.49,5.9,3.19,2.52,5,6.42,6.43,10.62,1-3.28.19-7.13-2.88-11.1,17.64,7.89,34.19,11.46,45.55,6.68a22.09,22.09,0,0,0,2.91-1.48c-4.81,1.35-9.81.68-18.12-3.09l-.07,0,.07,0c13.88,1.7,21.49,1,29.32-2.22,1.85-.76,3.72-1.64,5.69-2.68-13.77,2.41-27.17-.83-39.8-7.81l-10.23-3.44C784.2,454.62,783.7,455,783.15,455.4Z" transform="translate(-370.5 -23.5)"/><path id="path1982" class="cls-13" d="M793.6,443.55c3.59-2.55,7.27-5.11,11-7.68s7.25-4.93,11-7.37,7.49-4.89,11.3-7.32,7.81-4.9,11.81-7.3,7.89-4.71,11.88-7c1.43-.83,2.89-1.64,4.33-2.45q3.75-2.1,7.53-4.13c.15-.07.27-.15.41-.22l-6-20.14c-.27.12-.57.25-.86.35-4.09,1.72-8.19,3.5-12.25,5.36s-8.21,3.85-12.25,5.89c-3.4,1.72-6.77,3.47-10.11,5.29l-2,1.1c-4.11,2.32-7.91,4.6-11.45,6.88q-6,3.84-10.89,7.56c-2.16,1.62-4.16,3.22-6,4.77-1.57,1.34-3.09,2.71-4.61,4.07a123.08,123.08,0,0,0-9.74,10l6,20.22c2.76-2,5.6-4.08,8.49-6.14C792,444.69,792.78,444.1,793.6,443.55Z" transform="translate(-370.5 -23.5)"/><path id="path1994" class="cls-14" d="M776.3,431.65A83.33,83.33,0,0,0,767,444.74l-.27.48c-2.25-5.43-11-13.43-11-13.39,4.61,9.7,7.44,18.61,5.55,25.42-4.17-1.15-9.28-4.11-14.94-8.12a42.15,42.15,0,0,0,11.24,10.55c-6.11-2.25-13.42-2.29-21-1.95,10.18,1.48,18,3.64,23,6.59-14.69,11.3-30,24.15-45.81,38,2.8.6,4.81.15,6.28-.95,2.84-2.51,21.53-19,48.63-39.59.79-.58,1.55-1.18,2.34-1.76a5.72,5.72,0,0,1,.65-.48c2.84-2.16,5.8-4.34,8.81-6.58l2.08-1.52,0,0-6-20.23C776.57,431.34,776.44,431.49,776.3,431.65Z" transform="translate(-370.5 -23.5)"/><path id="path2006" class="cls-15" d="M864.22,402.15l-1.64.9c-1.65.92-3.3,1.86-5,2.83s-3.68,2.12-5.56,3.23c-1,.55-1.91,1.11-2.87,1.69-2.88,1.72-5.81,3.51-8.82,5.36-3.67,2.28-7.48,4.66-11.35,7.18-3.68,2.4-7.49,4.87-11.33,7.48q-5.49,3.69-11.2,7.68-5.1,3.56-10.36,7.37l-.49.37Q790.36,450,785,454.06a2,2,0,0,0-.24.19L795,457.69l-.57-.3c12.26,4,30.4,5.05,43.45,2.48a75.88,75.88,0,0,0,17.61-5.8,99.21,99.21,0,0,0,12.85-7.28,136.88,136.88,0,0,0,11.35-8.48,57.58,57.58,0,0,1-10.14-1.85c-.65-.17-1.29-.35-1.95-.54s-1.32-.4-2-.62h0c12.2,1.95,21.33-.25,29-4.4a58,58,0,0,1-14.85-1.9c-.81-.21-1.63-.46-2.47-.71l-.61-.18h0a61.16,61.16,0,0,0,11.36.67c.73,0,1.44-.07,2.11-.15,1-.11,2.06-.26,3.07-.43.64-.12,1.26-.26,1.88-.4a30.88,30.88,0,0,0,4.21-1.36c.41-.18.84-.34,1.24-.53.56-.28,1.09-.58,1.61-.85a68.27,68.27,0,0,0,5.94-3.59c.81-.55,1.52-1.07,2.19-1.57l.74-.59c.7-.55,1.28-1.07,1.77-1.53a13.85,13.85,0,0,0,1.57-1.71h0c-.46,0-1,0-1.53,0A73.27,73.27,0,0,1,898,413.29l9.38,3.17L898,413.29l-.22-.06-1.45-.45.26,0L864.42,402c0,.05-.12.11-.2.16Z" transform="translate(-370.5 -23.5)"/><path id="path2018" class="cls-16" d="M915.83,377.62c-3.89,1.49-8.17,3.23-12.89,5.27l-.74.32c-4.05,1.77-8.39,3.76-13.06,6-4,1.93-8.21,4-12.63,6.32q-5.79,3-12.06,6.49l32.13,10.81c10.2,1.18,15.24.52,20.61-1.24,1.43-.51,2.91-1,4.37-1.63a134.18,134.18,0,0,0,13.33-6.12,98.75,98.75,0,0,0,10.93-6.59,41.17,41.17,0,0,0,4.91-4,32.32,32.32,0,0,0,3-3.27C941.05,386.27,925.63,381.33,915.83,377.62Z" transform="translate(-370.5 -23.5)"/><path id="path2020" class="cls-9" d="M867.58,435.89c-.66-.19-1.32-.39-2-.61h0C866.26,435.51,866.94,435.71,867.58,435.89Z" transform="translate(-370.5 -23.5)"/><path id="path2022" class="cls-10" d="M867.58,435.89c-.66-.19-1.32-.39-2-.61h0C866.26,435.51,866.94,435.71,867.58,435.89Z" transform="translate(-370.5 -23.5)"/><path id="path2034" class="cls-17" d="M867.58,435.89c-.66-.19-1.32-.39-2-.61h0C866.26,435.51,866.94,435.71,867.58,435.89Z" transform="translate(-370.5 -23.5)"/><path id="path2036" class="cls-9" d="M876.72,428.1l.62.19C877.14,428.22,876.93,428.18,876.72,428.1Z" transform="translate(-370.5 -23.5)"/><path id="path2038" class="cls-10" d="M876.72,428.1l.62.19C877.14,428.22,876.93,428.18,876.72,428.1Z" transform="translate(-370.5 -23.5)"/><path id="path2050" class="cls-18" d="M876.72,428.1l.62.19C877.14,428.22,876.93,428.18,876.72,428.1Z" transform="translate(-370.5 -23.5)"/><path id="path2052" class="cls-9" d="M876.72,428.1Z" transform="translate(-370.5 -23.5)"/><path id="path2054" class="cls-10" d="M876.72,428.1Z" transform="translate(-370.5 -23.5)"/><path id="path2066" class="cls-19" d="M876.72,428.1Z" transform="translate(-370.5 -23.5)"/></g><line class="cls-6" x1="70.28" y1="25.58" x2="179.64" y2="387.47"/><line class="cls-6" x1="16.08" y1="204.13" x2="306.43" y2="872.24"/><text class="cls-20" transform="translate(622.59 638.9) scale(0.81 1)">ayang</text><text class="cls-21" transform="translate(713.88 516.5)"><tspan class="cls-22">A</tspan><tspan x="75.08" y="0">pa</tspan><tspan class="cls-23" x="201.06" y="0">c</tspan><tspan x="262.44" y="0">he</tspan></text></g></svg>