<?xml version="1.0" encoding="iso-8859-1"?>
<!-- Uploaded to: SVG Repo, www.svgrepo.com, Generator: SVG Repo Mixer Tools -->
<svg fill="#000000" height="800px" width="800px" version="1.1" id="Capa_1" xmlns="http://www.w3.org/2000/svg" xmlns:xlink="http://www.w3.org/1999/xlink" 
	 viewBox="0 0 289.939 289.939" xml:space="preserve">
<g>
	<path id="circle8953" d="M144.969,20.485c-37.119,0-74.239,14.145-102.531,42.438c-56.584,56.584-56.584,148.478,0,205.063
		c1.951,1.955,5.118,1.957,7.072,0.006s1.957-5.118,0.006-7.072c-0.002-0.002-0.004-0.004-0.006-0.006
		c-52.763-52.763-52.763-138.155,0-190.918c52.763-52.763,138.155-52.763,190.918,0c52.763,52.763,52.763,138.155,0,190.918
		c-1.955,1.951-1.959,5.117-0.008,7.072s5.117,1.959,7.072,0.008c0.003-0.003,0.005-0.005,0.008-0.008
		c56.584-56.584,56.584-148.478,0-205.063C219.209,34.63,182.089,20.485,144.969,20.485z M144.969,35.798
		c-32.626,0-65.271,12.458-90.156,37.344c-49.771,49.771-49.771,130.541,0,180.312c0.956,0.996,2.539,1.028,3.535,0.072
		c0.996-0.956,1.028-2.539,0.072-3.535c-0.023-0.024-0.047-0.048-0.072-0.072c-47.86-47.861-47.86-125.38,0-173.24
		c23.93-23.93,55.267-35.881,86.621-35.881c1.381,0.02,2.516-1.084,2.535-2.465s-1.084-2.516-2.465-2.535
		C145.017,35.797,144.993,35.797,144.969,35.798z M224.872,80.405c-1.299,0.039-2.532,0.582-3.438,1.514l-62.701,62.701
		c-3.955-2.627-8.687-4.166-13.764-4.166c-13.748,0-25,11.252-25,25s11.252,25,25,25s25-11.252,25-25
		c0-5.076-1.539-9.809-4.166-13.764l62.701-62.701C231.775,85.81,229.431,80.271,224.872,80.405z M144.969,150.454
		c8.343,0,15,6.657,15,15s-6.657,15-15,15s-15-6.657-15-15S136.626,150.454,144.969,150.454z M144.969,152.954
		c-6.874,0-12.5,5.626-12.5,12.5c-0.02,1.381,1.084,2.516,2.465,2.535c1.381,0.02,2.516-1.084,2.535-2.465c0-0.024,0-0.047,0-0.071
		c0-4.172,3.328-7.5,7.5-7.5c1.381,0.02,2.516-1.084,2.535-2.465c0.02-1.381-1.084-2.516-2.465-2.535
		C145.017,152.953,144.993,152.953,144.969,152.954z"/>
</g>
</svg>